<svg xmlns="http://www.w3.org/2000/svg" viewBox="0 0 1024 768" width="1024" height="768"><defs><pattern id="halftone-ink-l" width="9" height="9" patternUnits="userSpaceOnUse" patternTransform="rotate(45)"><circle cx="4.5" cy="4.5" r="3.5" fill="#151923"/></pattern><pattern id="halftone-ink-m" width="9" height="9" patternUnits="userSpaceOnUse" patternTransform="rotate(45)"><circle cx="4.5" cy="4.5" r="2.5" fill="#151923"/></pattern><clipPath id="clip-room-a-glass"><circle cx="512" cy="210" r="93"/></clipPath><pattern id="halftone-ink-s" width="9" height="9" patternUnits="userSpaceOnUse" patternTransform="rotate(45)"><circle cx="4.5" cy="4.5" r="1.5" fill="#151923"/></pattern><pattern id="halftone-paper-s" width="9" height="9" patternUnits="userSpaceOnUse" patternTransform="rotate(45)"><circle cx="4.5" cy="4.5" r="1.5" fill="#F4EBDD"/></pattern><pattern id="halftone-paper-m" width="9" height="9" patternUnits="userSpaceOnUse" patternTransform="rotate(45)"><circle cx="4.5" cy="4.5" r="2.6" fill="#F4EBDD"/></pattern><clipPath id="clip-room-a-floor"><polygon points="120,372 904,372 1004,748 20,748"/></clipPath><clipPath id="clip-room-a-canister"><path d="M786 340 V404 A32 10 0 0 0 850 404 V340 Z"/></clipPath></defs><g data-layer="room-a-space" clip-path="url(#clip-room-a-glass)"><circle cx="512" cy="210" r="97" fill="#10141C"/><g fill="#F4EBDD"><circle cx="452" cy="164" r="1.8"/><circle cx="476" cy="238" r="1.4"/><circle cx="499" cy="146" r="2.4"/><circle cx="537" cy="170" r="1.5"/><circle cx="566" cy="141" r="2"/><circle cx="590" cy="196" r="1.4"/><circle cx="441" cy="222" r="1.6"/><circle cx="489" cy="190" r="1.1"/><circle cx="571" cy="181" r="1.1"/><circle cx="460" cy="264" r="1.2"/><circle cx="523" cy="131" r="1.2"/><path d="M468 196 L471 187 L474 196 L483 199 L474 202 L471 211 L468 202 L459 199 Z"/></g><circle cx="600" cy="322" r="132" fill="#CBBBA2" stroke="#151923" stroke-width="5"/><path d="M478 286 C500 236 552 202 612 198 C566 220 534 252 520 300 C514 322 514 342 520 362 L470 340 Z" fill="#F4EBDD"/><path d="M540 214 C600 200 660 222 700 268 L720 420 L560 430 C600 380 610 300 540 214 Z" fill="url(#halftone-ink-m)"/><path d="M610 230 C660 236 700 268 716 316 L740 440 L640 440 C676 380 672 290 610 230 Z" fill="url(#halftone-ink-l)"/><path d="M486 300 C530 280 590 276 650 290" fill="none" stroke="#151923" stroke-width="3" stroke-linecap="round"/><path d="M500 330 C540 316 590 312 640 322" fill="none" stroke="#151923" stroke-width="2.5" stroke-linecap="round"/><path d="M436 176 L496 118 L524 118 L430 210 Z" fill="#F4EBDD" opacity="0.16"/><path d="M446 232 L560 120 L574 124 L452 246 Z" fill="#F4EBDD" opacity="0.1"/></g><g data-layer="room-a-backwall"><path fill-rule="evenodd" fill="#2D609E" d="M120 70 H904 V372 H120 Z M512 118 A92 92 0 1 0 512 302 A92 92 0 1 0 512 118 Z"/><path fill-rule="evenodd" fill="#5C92CC" d="M322 104 H702 V336 H322 Z M512 118 A92 92 0 1 0 512 302 A92 92 0 1 0 512 118 Z"/><path d="M322 104 H420 L322 236 Z" fill="#A9CAEB"/><path d="M640 336 L702 250 V336 Z" fill="#2D609E"/><path d="M640 336 L702 250 V336 Z" fill="url(#halftone-ink-s)"/><rect x="120" y="70" width="784" height="34" fill="#1D3D6B"/><rect x="120" y="336" width="784" height="36" fill="#1D3D6B"/><path d="M120 104 H904 M120 336 H904" fill="none" stroke="#151923" stroke-width="3.5"/><g fill="#A9CAEB"><circle cx="170" cy="354" r="3"/><circle cx="250" cy="354" r="3"/><circle cx="380" cy="354" r="3"/><circle cx="470" cy="354" r="3"/><circle cx="554" cy="354" r="3"/><circle cx="644" cy="354" r="3"/><circle cx="770" cy="354" r="3"/><circle cx="860" cy="354" r="3"/></g><path d="M134 104 H230 L176 336 H134 Z" fill="url(#halftone-ink-m)"/><path d="M230 104 H276 L212 336 H176 Z" fill="url(#halftone-ink-s)"/><path d="M724 104 H890 V122 H724 Z" fill="url(#halftone-ink-s)"/><path d="M134 288 H300 M724 196 H890 M410 104 V118 M614 104 V118 M322 316 H702" fill="none" stroke="#151923" stroke-width="2" opacity="0.55"/><rect x="300" y="70" width="22" height="302" fill="#A9CAEB" stroke="#151923" stroke-width="4"/><rect x="702" y="70" width="22" height="302" fill="#A9CAEB" stroke="#151923" stroke-width="4"/><rect x="120" y="70" width="14" height="302" fill="#1D3D6B" stroke="#151923" stroke-width="4"/><rect x="890" y="70" width="14" height="302" fill="#5C92CC" stroke="#151923" stroke-width="4"/><path d="M316 74 V368 M718 74 V368" fill="none" stroke="#5C92CC" stroke-width="4"/><g fill="#151923"><circle cx="309" cy="92" r="2.6"/><circle cx="309" cy="140" r="2.6"/><circle cx="309" cy="188" r="2.6"/><circle cx="309" cy="236" r="2.6"/><circle cx="309" cy="284" r="2.6"/><circle cx="309" cy="352" r="2.6"/><circle cx="711" cy="92" r="2.6"/><circle cx="711" cy="140" r="2.6"/><circle cx="711" cy="188" r="2.6"/><circle cx="711" cy="236" r="2.6"/><circle cx="711" cy="284" r="2.6"/><circle cx="711" cy="352" r="2.6"/></g><circle cx="512" cy="210" r="105" fill="none" stroke="#A9CAEB" stroke-width="26"/><path d="M610.7 245.9 A105 105 0 0 1 476.1 308.7" fill="none" stroke="url(#halftone-ink-m)" stroke-width="24"/><path d="M403.7 190.9 A110 110 0 0 1 492.9 101.7" fill="none" stroke="#F4EBDD" stroke-width="6" stroke-linecap="round"/><circle cx="512" cy="210" r="118" fill="none" stroke="#151923" stroke-width="6"/><circle cx="512" cy="210" r="92" fill="none" stroke="#151923" stroke-width="6"/><g fill="#2D609E" stroke="#151923" stroke-width="2.5"><circle cx="609" cy="250.2" r="5"/><circle cx="552.2" cy="307" r="5"/><circle cx="471.8" cy="307" r="5"/><circle cx="415" cy="250.2" r="5"/><circle cx="415" cy="169.8" r="5"/><circle cx="471.8" cy="113" r="5"/><circle cx="552.2" cy="113" r="5"/><circle cx="609" cy="169.8" r="5"/></g><path d="M158 252 H284 L296 266 H170 Z" fill="#151923"/><rect x="158" y="122" width="126" height="130" rx="6" fill="#1D3D6B" stroke="#151923" stroke-width="4"/><rect x="170" y="134" width="102" height="58" rx="4" fill="#10141C" stroke="#151923" stroke-width="3"/><path d="M181 150 H236 M181 162 H252 M181 174 H214" fill="none" stroke="#F4EBDD" stroke-width="3" stroke-linecap="round"/><circle cx="254" cy="176" r="5.5" fill="none" stroke="#F4EBDD" stroke-width="2.5"/><rect x="172" y="204" width="22" height="16" rx="2" fill="#F4EBDD" stroke="#151923" stroke-width="2.5"/><rect x="202" y="204" width="22" height="16" rx="2" fill="#A9CAEB" stroke="#151923" stroke-width="2.5"/><rect x="232" y="204" width="22" height="16" rx="2" fill="#A9CAEB" stroke="#151923" stroke-width="2.5"/><path d="M172 236 H270" fill="none" stroke="#151923" stroke-width="3" stroke-linecap="round"/><rect x="228" y="229" width="13" height="14" rx="2" fill="#F4EBDD" stroke="#151923" stroke-width="2.5"/><g fill="#A9CAEB" stroke="#151923" stroke-width="3"><rect x="724" y="121" width="166" height="14"/><rect x="724" y="143" width="166" height="14"/><rect x="724" y="165" width="166" height="14"/></g><path d="M730 125 H884 M730 147 H884 M730 169 H884" fill="none" stroke="#F4EBDD" stroke-width="2.5" stroke-linecap="round"/><g fill="#5C92CC" stroke="#151923" stroke-width="3"><rect x="752" y="117" width="10" height="66" rx="2"/><rect x="858" y="117" width="10" height="66" rx="2"/></g><circle cx="812" cy="150" r="21" fill="#A9CAEB" stroke="#151923" stroke-width="4"/><circle cx="812" cy="150" r="12" fill="#2D609E" stroke="#151923" stroke-width="3"/><path d="M812 131 V169 M793 150 H831" fill="none" stroke="#151923" stroke-width="3.5"/><circle cx="812" cy="150" r="4.5" fill="#F4EBDD" stroke="#151923" stroke-width="2.5"/><path d="M760 336 H880 L890 348 H770 Z" fill="#151923" opacity="0.9"/><rect x="760" y="206" width="120" height="130" fill="#5C92CC" stroke="#151923" stroke-width="4"/><path d="M820 206 V336" fill="none" stroke="#151923" stroke-width="3"/><path d="M774 222 H806 M774 232 H806 M774 242 H806 M834 222 H866 M834 232 H866 M834 242 H866" fill="none" stroke="#151923" stroke-width="2.5" stroke-linecap="round"/><rect x="806" y="268" width="6" height="20" rx="1.5" fill="#151923"/><rect x="828" y="268" width="6" height="20" rx="1.5" fill="#151923"/><path d="M848 206 H880 V336 H862 Z" fill="url(#halftone-ink-s)"/></g><g data-layer="room-a-shell"><polygon points="20,20 1004,20 904,70 120,70" fill="#151923"/><path d="M286 31 H476 L466 58 H308 Z" fill="#F4EBDD" stroke="#2D609E" stroke-width="3" stroke-linejoin="round"/><path d="M548 31 H738 L716 58 H558 Z" fill="#F4EBDD" stroke="#2D609E" stroke-width="3" stroke-linejoin="round"/><path d="M320 44 H452 M572 44 H704" fill="none" stroke="#E3D6C2" stroke-width="3" stroke-linecap="round"/><polygon points="20,20 120,70 120,372 20,748" fill="#14243F"/><path d="M20 260.2 L120 169.7 M20 456.8 L120 251.2" fill="none" stroke="#1D3D6B" stroke-width="3"/><polygon points="20,340.3 120,202.9 120,221 20,384" fill="#1D3D6B" stroke="#151923" stroke-width="2.5" stroke-linejoin="round"/><polygon points="20,560 120,294 120,372 20,748" fill="url(#halftone-ink-m)" opacity="0.7"/><polygon points="1004,20 904,70 904,372 1004,748" fill="#1D3D6B"/><path d="M1004 260.2 L904 169.7 M1004 456.8 L904 251.2" fill="none" stroke="#14243F" stroke-width="3"/><polygon points="1004,20 904,70 904,150 1004,216" fill="#2D609E"/><polygon points="1004,216 904,150 904,186 1004,300" fill="url(#halftone-paper-s)" opacity="0.5"/><path d="M1004 216 L904 150" fill="none" stroke="#151923" stroke-width="2.5"/></g><g data-layer="room-a-floor"><polygon points="120,372 904,372 1004,748 20,748" fill="#5C92CC"/><g clip-path="url(#clip-room-a-floor)"><polygon points="113,398 911,398 904,372 120,372" fill="#2D609E"/><polygon points="120,372 196,372 132,748 20,748" fill="#2D609E"/><polygon points="196,372 250,372 210,748 132,748" fill="url(#halftone-ink-m)"/><polygon points="250,372 296,372 272,748 210,748" fill="url(#halftone-ink-s)"/><polygon points="110,398 914,398 918,416 106,416" fill="url(#halftone-ink-s)"/><path fill-rule="evenodd" fill="url(#halftone-paper-m)" d="M128 574 A384 150 0 1 0 896 574 A384 150 0 1 0 128 574 Z M176 572 A336 128 0 1 0 848 572 A336 128 0 1 0 176 572 Z"/><ellipse cx="512" cy="572" rx="336" ry="128" fill="#E3D6C2"/><ellipse cx="512" cy="566" rx="250" ry="88" fill="#F4EBDD"/><path d="M250.7 372 L184 748 M381.3 372 L348 748 M512 372 V748 M642.7 372 L676 748 M773.3 372 L840 748" fill="none" stroke="#151923" stroke-width="2.5" opacity="0.24"/><path d="M104.6 430 H919.4 M82.8 512 H941.2 M54.6 618 H969.4" fill="none" stroke="#151923" stroke-width="2.5" opacity="0.24"/><g fill="#151923" opacity="0.4"><circle cx="262" cy="440" r="2.4"/><circle cx="370" cy="440" r="2.4"/><circle cx="524" cy="440" r="2.4"/><circle cx="654" cy="440" r="2.4"/><circle cx="762" cy="440" r="2.4"/><circle cx="240" cy="630" r="2.8"/><circle cx="362" cy="630" r="2.8"/><circle cx="526" cy="630" r="2.8"/><circle cx="662" cy="630" r="2.8"/><circle cx="784" cy="630" r="2.8"/></g><path d="M690 690 L740 676 M704 704 L770 686 M330 708 L372 698" fill="none" stroke="#151923" stroke-width="2.5" stroke-linecap="round" opacity="0.5"/></g></g><g data-layer="room-a-edges" fill="none" stroke="#151923" stroke-linejoin="round" stroke-linecap="round"><path d="M120 70 H904 V372 H120 Z" stroke-width="6"/><path d="M20 20 L120 70 M1004 20 L904 70 M20 748 L120 372 M1004 748 L904 372" stroke-width="6"/></g><g data-layer="room-a-props-back"><polygon points="242,414 258,398 306,406 288,428 150,428 150,414" fill="#151923"/><polygon points="150,322 242,322 258,306 166,306" fill="#F4EBDD" stroke="#151923" stroke-width="4" stroke-linejoin="round"/><polygon points="242,322 258,306 258,398 242,414" fill="#CBBBA2" stroke="#151923" stroke-width="4" stroke-linejoin="round"/><rect x="150" y="322" width="92" height="92" fill="#E3D6C2" stroke="#151923" stroke-width="4" stroke-linejoin="round"/><rect x="160" y="332" width="72" height="72" fill="none" stroke="#151923" stroke-width="2.5"/><path d="M160 332 L232 404 M232 332 L160 404" fill="none" stroke="#151923" stroke-width="3"/><polygon points="242,322 258,306 258,398 242,414" fill="url(#halftone-ink-s)"/><polygon points="158,280 206,280 216,270 168,270" fill="#F4EBDD" stroke="#151923" stroke-width="4" stroke-linejoin="round"/><polygon points="206,280 216,270 216,298 206,306" fill="#CBBBA2" stroke="#151923" stroke-width="4" stroke-linejoin="round"/><rect x="158" y="280" width="48" height="26" fill="#E3D6C2" stroke="#151923" stroke-width="4" stroke-linejoin="round"/><path d="M168 293 H196" fill="none" stroke="#151923" stroke-width="2.5" stroke-linecap="round"/><ellipse cx="842" cy="412" rx="42" ry="11" fill="#151923"/><path d="M786 340 V404 A32 10 0 0 0 850 404 V340 Z" fill="#A9CAEB" stroke="#151923" stroke-width="4" stroke-linejoin="round"/><rect x="828" y="336" width="26" height="84" fill="url(#halftone-ink-m)" clip-path="url(#clip-room-a-canister)"/><path d="M786 362 A32 10 0 0 0 850 362 M786 386 A32 10 0 0 0 850 386" fill="none" stroke="#151923" stroke-width="3"/><path d="M794 350 V398" fill="none" stroke="#F4EBDD" stroke-width="3.5" stroke-linecap="round"/><ellipse cx="818" cy="340" rx="32" ry="10" fill="#F4EBDD" stroke="#151923" stroke-width="4"/><ellipse cx="818" cy="340" rx="19" ry="5.5" fill="#A9CAEB" stroke="#151923" stroke-width="2.5"/></g><g data-layer="room-a-props-front"><ellipse cx="124" cy="704" rx="62" ry="21" fill="#151923"/><g fill="none" stroke-linecap="round"><ellipse cx="116" cy="694" rx="58" ry="20" stroke="#151923" stroke-width="13"/><ellipse cx="116" cy="694" rx="58" ry="20" stroke="#A9CAEB" stroke-width="6"/><ellipse cx="116" cy="692" rx="36" ry="12" stroke="#151923" stroke-width="12"/><ellipse cx="116" cy="692" rx="36" ry="12" stroke="#5C92CC" stroke-width="5.5"/><path d="M62 700 C48 710 38 724 30 742" stroke="#151923" stroke-width="13"/><path d="M62 700 C48 710 38 724 30 742" stroke="#A9CAEB" stroke-width="6"/></g><polygon points="872,720 976,720 990,706 990,728 880,734" fill="#151923"/><path d="M906 652 C906 630 956 630 956 652" fill="none" stroke="#151923" stroke-width="11" stroke-linecap="round"/><path d="M906 652 C906 630 956 630 956 652" fill="none" stroke="#A9CAEB" stroke-width="4.5" stroke-linecap="round"/><polygon points="872,666 976,666 990,652 886,652" fill="#F4EBDD" stroke="#151923" stroke-width="4" stroke-linejoin="round"/><polygon points="976,666 990,652 990,706 976,720" fill="#CBBBA2" stroke="#151923" stroke-width="4" stroke-linejoin="round"/><rect x="872" y="666" width="104" height="54" fill="#E3D6C2" stroke="#151923" stroke-width="4" stroke-linejoin="round"/><path d="M872 684 H976" fill="none" stroke="#151923" stroke-width="3"/><rect x="912" y="676" width="24" height="16" rx="2" fill="#A9CAEB" stroke="#151923" stroke-width="2.5"/></g><g data-layer="room-a-frame"><path d="M19 21 L1005 18 L1006 749 L18 750 Z" fill="none" stroke="#151923" stroke-width="10" stroke-linejoin="miter"/></g></svg>
