<svg xmlns="http://www.w3.org/2000/svg"><defs><pattern id="halftone-ink-fine" width="4" height="4" patternUnits="userSpaceOnUse" patternTransform="rotate(45)"><circle cx="2" cy="2" r="1.05" fill="#151923"/></pattern><pattern id="halftone-ink-marker" width="3.2" height="3.2" patternUnits="userSpaceOnUse" patternTransform="rotate(45)"><circle cx="1.6" cy="1.6" r="0.95" fill="#151923"/></pattern><clipPath id="clip-heart-right"><path d="M17 0 H32 V32 H16.5 L13.5 20 L18 15 L14 10 Z"/></clipPath><clipPath id="clip-heart-left"><path d="M0 0 H17 L14 10 L18 15 L13.5 20 L16.5 32 H0 Z"/></clipPath></defs><symbol id="token-badge" viewBox="0 0 80 80"><g data-layer="badge-shadow"><circle cx="42" cy="42" r="30" fill="#151923"/></g><g data-layer="badge-body"><circle cx="38" cy="38" r="30" fill="#C6CDD4" stroke="#151923" stroke-width="4"/></g><g data-layer="badge-shade"><path d="M59.65 25.5 A25 25 0 0 1 25.5 59.65" fill="none" stroke="url(#halftone-ink-fine)" stroke-width="6.5"/></g><g data-layer="badge-highlight"><path d="M14.04 29.28 A25.5 25.5 0 0 1 29.28 14.04" fill="none" stroke="#F4EBDD" stroke-width="3" stroke-linecap="round"/></g><g data-layer="badge-face"><circle cx="38" cy="38" r="21" fill="#F4EBDD" stroke="#151923" stroke-width="2.5"/></g></symbol><symbol id="token-badge-injured" viewBox="0 0 80 80"><g data-layer="badge-shadow"><circle cx="42" cy="42" r="30" fill="#151923"/></g><g data-layer="badge-body"><circle cx="38" cy="38" r="30" fill="#C6CDD4" stroke="#151923" stroke-width="4"/></g><g data-layer="badge-shade"><path d="M59.65 25.5 A25 25 0 0 1 25.5 59.65" fill="none" stroke="url(#halftone-ink-fine)" stroke-width="6.5"/></g><g data-layer="badge-highlight"><path d="M14.04 29.28 A25.5 25.5 0 0 1 29.28 14.04" fill="none" stroke="#F4EBDD" stroke-width="3" stroke-linecap="round"/></g><g data-layer="badge-face"><circle cx="38" cy="38" r="21" fill="#F4EBDD" stroke="#151923" stroke-width="2.5"/></g><g data-layer="health-injured"><path d="M60 16 L55 22 L59.5 25 L55.5 29.5" fill="none" stroke="#151923" stroke-width="2.5" stroke-linejoin="miter" stroke-linecap="square"/><g transform="translate(19.6 56.4) rotate(-45)"><rect x="-9" y="-4.5" width="18" height="9" rx="2" fill="#F4EBDD" stroke="#151923" stroke-width="2"/><path d="M-3 -4.5 V4.5 M3 -4.5 V4.5" fill="none" stroke="#151923" stroke-width="1.5"/></g></g></symbol><symbol id="token-badge-eliminated" viewBox="0 0 80 80"><g data-layer="eliminated-body"><circle cx="38" cy="38" r="30" fill="#34415A" stroke="#151923" stroke-width="4"/><circle cx="38" cy="38" r="30" fill="none" stroke="#CBBBA2" stroke-width="2" stroke-dasharray="5 4.4"/><path d="M13 21 L20 28 M56 48 L63 55" fill="none" stroke="#CBBBA2" stroke-width="3" stroke-linecap="square"/></g><g data-layer="eliminated-face"><circle cx="38" cy="38" r="21" fill="#CBBBA2" stroke="#151923" stroke-width="2.5"/></g></symbol><symbol id="token-standee" viewBox="0 0 96 120"><g data-layer="standee-floor-shadow"><ellipse cx="53" cy="108" rx="30" ry="8.5" fill="#151923"/></g><g data-layer="standee-base"><path d="M24 100 V104 A24 7.5 0 0 0 72 104 V100 Z" fill="#55657E" stroke="#151923" stroke-width="3" stroke-linejoin="round"/><ellipse cx="48" cy="100" rx="24" ry="7.5" fill="#C6CDD4" stroke="#151923" stroke-width="3"/></g><g data-layer="standee-neck"><path d="M41 68 H55 L58 100 H38 Z" fill="#55657E" stroke="#151923" stroke-width="3" stroke-linejoin="round"/><path d="M52 72 L54.5 98" fill="none" stroke="#151923" stroke-width="2" stroke-linecap="round"/></g><g data-layer="standee-badge" transform="translate(10 6)"><circle cx="42" cy="42" r="30" fill="#151923"/><circle cx="38" cy="38" r="30" fill="#C6CDD4" stroke="#151923" stroke-width="4"/><path d="M59.65 25.5 A25 25 0 0 1 25.5 59.65" fill="none" stroke="url(#halftone-ink-fine)" stroke-width="6.5"/><path d="M14.04 29.28 A25.5 25.5 0 0 1 29.28 14.04" fill="none" stroke="#F4EBDD" stroke-width="3" stroke-linecap="round"/><circle cx="38" cy="38" r="21" fill="#F4EBDD" stroke="#151923" stroke-width="2.5"/></g></symbol><symbol id="token-standee-injured" viewBox="0 0 96 120"><g data-layer="standee-floor-shadow"><ellipse cx="53" cy="108" rx="30" ry="8.5" fill="#151923"/></g><g data-layer="standee-base"><path d="M24 100 V104 A24 7.5 0 0 0 72 104 V100 Z" fill="#55657E" stroke="#151923" stroke-width="3" stroke-linejoin="round"/><ellipse cx="48" cy="100" rx="24" ry="7.5" fill="#C6CDD4" stroke="#151923" stroke-width="3"/></g><g data-layer="standee-neck"><path d="M41 68 H55 L58 100 H38 Z" fill="#55657E" stroke="#151923" stroke-width="3" stroke-linejoin="round"/><path d="M52 72 L54.5 98" fill="none" stroke="#151923" stroke-width="2" stroke-linecap="round"/></g><g data-layer="standee-badge" transform="translate(10 6)"><circle cx="42" cy="42" r="30" fill="#151923"/><circle cx="38" cy="38" r="30" fill="#C6CDD4" stroke="#151923" stroke-width="4"/><path d="M59.65 25.5 A25 25 0 0 1 25.5 59.65" fill="none" stroke="url(#halftone-ink-fine)" stroke-width="6.5"/><path d="M14.04 29.28 A25.5 25.5 0 0 1 29.28 14.04" fill="none" stroke="#F4EBDD" stroke-width="3" stroke-linecap="round"/><circle cx="38" cy="38" r="21" fill="#F4EBDD" stroke="#151923" stroke-width="2.5"/></g><g data-layer="standee-health-injured" transform="translate(10 6)"><path d="M60 16 L55 22 L59.5 25 L55.5 29.5" fill="none" stroke="#151923" stroke-width="2.5" stroke-linejoin="miter" stroke-linecap="square"/><g transform="translate(19.6 56.4) rotate(-45)"><rect x="-9" y="-4.5" width="18" height="9" rx="2" fill="#F4EBDD" stroke="#151923" stroke-width="2"/><path d="M-3 -4.5 V4.5 M3 -4.5 V4.5" fill="none" stroke="#151923" stroke-width="1.5"/></g></g></symbol><symbol id="token-standee-eliminated" viewBox="0 0 96 120"><g data-layer="standee-base"><path d="M24 100 V104 A24 7.5 0 0 0 72 104 V100 Z" fill="#55657E" stroke="#151923" stroke-width="3" stroke-linejoin="round"/><ellipse cx="48" cy="100" rx="24" ry="7.5" fill="#C6CDD4" stroke="#151923" stroke-width="3"/></g><g data-layer="standee-neck"><path d="M41 68 H55 L58 100 H38 Z" fill="#55657E" stroke="#151923" stroke-width="3" stroke-linejoin="round"/><path d="M52 72 L54.5 98" fill="none" stroke="#151923" stroke-width="2" stroke-linecap="round"/></g><g data-layer="standee-eliminated-badge" transform="translate(10 6)"><circle cx="38" cy="38" r="30" fill="#34415A" stroke="#151923" stroke-width="4"/><circle cx="38" cy="38" r="30" fill="none" stroke="#CBBBA2" stroke-width="2" stroke-dasharray="5 4.4"/><path d="M13 21 L20 28 M56 48 L63 55" fill="none" stroke="#CBBBA2" stroke-width="3" stroke-linecap="square"/><circle cx="38" cy="38" r="21" fill="#CBBBA2" stroke="#151923" stroke-width="2.5"/></g></symbol><symbol id="numeral-1" viewBox="0 0 40 48"><g data-layer="numeral-1" fill="none" stroke="#151923" stroke-width="7" stroke-linejoin="miter" stroke-miterlimit="3" stroke-linecap="butt"><path d="M22 37.5 V4"/><path d="M22 7.5 L11 16"/><path d="M12 37.5 H32" stroke-width="6"/></g></symbol><symbol id="numeral-2" viewBox="0 0 40 48"><g data-layer="numeral-2" fill="none" stroke="#151923" stroke-width="7" stroke-linejoin="miter" stroke-miterlimit="3" stroke-linecap="butt"><path d="M9 16 A11 10 0 0 1 31 16 C31 23.5 19 28.5 9 37.5 H32"/></g></symbol><symbol id="numeral-3" viewBox="0 0 40 48"><g data-layer="numeral-3" fill="none" stroke="#151923" stroke-width="7" stroke-linejoin="miter" stroke-miterlimit="3" stroke-linecap="butt"><path d="M9 11.5 C13 5.3 31 4.8 31 14.2 C31 20 24 22.3 17 22.3 C25 22.3 32 24.5 32 30.3 C32 40.2 12 40.2 8 33"/></g></symbol><symbol id="numeral-4" viewBox="0 0 40 48"><g data-layer="numeral-4" fill="none" stroke="#151923" stroke-width="7" stroke-linejoin="miter" stroke-miterlimit="3" stroke-linecap="butt"><path d="M26 37.5 V4"/><path d="M26 7.5 L8 29 H33"/></g></symbol><symbol id="numeral-5" viewBox="0 0 40 48"><g data-layer="numeral-5" fill="none" stroke="#151923" stroke-width="7" stroke-linejoin="miter" stroke-miterlimit="3" stroke-linecap="butt"><path d="M30 7.5 H12.5 L10.5 20.5 C17 17 32 17.8 32 28.1 C32 39.7 13.5 40.2 8 33"/></g></symbol><symbol id="numeral-6" viewBox="0 0 40 48"><g data-layer="numeral-6" fill="none" stroke="#151923" stroke-width="7" stroke-linejoin="miter" stroke-miterlimit="3" stroke-linecap="butt"><path d="M28 8.5 C17.5 5.8 9.5 12.5 9.5 23.5 C9.5 41.5 30.5 41.5 30.5 27.5 C30.5 17 13 16.5 9.8 25.5"/><path d="M12.5 45.75 H27.5" stroke-width="2.5"/></g></symbol><symbol id="numeral-7" viewBox="0 0 40 48"><g data-layer="numeral-7" fill="none" stroke="#151923" stroke-width="7" stroke-linejoin="miter" stroke-miterlimit="3" stroke-linecap="butt"><path d="M8 7.5 H31.5 L17 37.5"/></g></symbol><symbol id="numeral-8" viewBox="0 0 40 48"><g data-layer="numeral-8" fill="none" stroke="#151923" stroke-width="7" stroke-linejoin="miter" stroke-miterlimit="3" stroke-linecap="butt"><ellipse cx="20" cy="14.3" rx="9" ry="7"/><ellipse cx="20" cy="29.3" rx="11" ry="8.2"/></g></symbol><symbol id="numeral-9" viewBox="0 0 40 48"><g data-layer="numeral-9" fill="none" stroke="#151923" stroke-width="7" stroke-linejoin="miter" stroke-miterlimit="3" stroke-linecap="butt"><path d="M12 36.5 C22.5 39.2 30.5 32.5 30.5 21.5 C30.5 3.5 9.5 3.5 9.5 17.5 C9.5 28 27 28.5 30.2 19.5"/><path d="M12.5 45.75 H27.5" stroke-width="2.5"/></g></symbol><symbol id="marker-health-healthy" viewBox="0 0 32 32"><g data-layer="glyph-health-healthy"><path d="M16 27 C6 19.5 3.5 14 5.5 9.8 C7.6 5.4 13.2 5.6 16 10 C18.8 5.6 24.4 5.4 26.5 9.8 C28.5 14 26 19.5 16 27 Z" fill="#151923" stroke="#151923" stroke-width="2.6" stroke-linejoin="round"/><path d="M9.2 12.2 C9.6 10 11.4 9.2 12.8 9.6" fill="none" stroke="#F4EBDD" stroke-width="1.8" stroke-linecap="round"/></g></symbol><symbol id="marker-health-injured" viewBox="0 0 32 32"><g data-layer="glyph-health-injured"><path d="M16 27 C6 19.5 3.5 14 5.5 9.8 C7.6 5.4 13.2 5.6 16 10 C18.8 5.6 24.4 5.4 26.5 9.8 C28.5 14 26 19.5 16 27 Z" fill="#151923" clip-path="url(#clip-heart-left)"/><path d="M16 27 C6 19.5 3.5 14 5.5 9.8 C7.6 5.4 13.2 5.6 16 10 C18.8 5.6 24.4 5.4 26.5 9.8 C28.5 14 26 19.5 16 27 Z" fill="#F4EBDD" clip-path="url(#clip-heart-right)"/><path d="M16 27 C6 19.5 3.5 14 5.5 9.8 C7.6 5.4 13.2 5.6 16 10 C18.8 5.6 24.4 5.4 26.5 9.8 C28.5 14 26 19.5 16 27 Z" fill="url(#halftone-ink-marker)" clip-path="url(#clip-heart-right)"/><path d="M16.6 7.5 L14 10 L18 15 L13.5 20 L16.2 26" fill="none" stroke="#F4EBDD" stroke-width="2.4" stroke-linejoin="miter"/><path d="M16 27 C6 19.5 3.5 14 5.5 9.8 C7.6 5.4 13.2 5.6 16 10 C18.8 5.6 24.4 5.4 26.5 9.8 C28.5 14 26 19.5 16 27 Z" fill="none" stroke="#151923" stroke-width="2.6" stroke-linejoin="round"/></g></symbol><symbol id="marker-health-eliminated" viewBox="0 0 32 32"><g data-layer="glyph-health-eliminated"><path d="M16 27 C6 19.5 3.5 14 5.5 9.8 C7.6 5.4 13.2 5.6 16 10 C18.8 5.6 24.4 5.4 26.5 9.8 C28.5 14 26 19.5 16 27 Z" fill="#F4EBDD" stroke="#151923" stroke-width="2.6" stroke-linejoin="round"/><path d="M7 6.5 L25 26.5 M25 6.5 L7 26.5" fill="none" stroke="#F4EBDD" stroke-width="6" stroke-linecap="round"/><path d="M7 6.5 L25 26.5 M25 6.5 L7 26.5" fill="none" stroke="#151923" stroke-width="3" stroke-linecap="round"/></g></symbol><symbol id="marker-jail" viewBox="0 0 32 32"><g data-layer="glyph-jail"><rect x="5.5" y="4.5" width="21" height="23" rx="3" fill="#151923" stroke="#151923" stroke-width="2.6" stroke-linejoin="round"/><path d="M11 6.5 V25.5 M16 6.5 V25.5 M21 6.5 V25.5" fill="none" stroke="#F4EBDD" stroke-width="2.4" stroke-linecap="round"/><path d="M7.5 16 H24.5" fill="none" stroke="#F4EBDD" stroke-width="2" stroke-linecap="round"/></g></symbol><symbol id="marker-captain" viewBox="0 0 32 32"><g data-layer="glyph-captain"><path d="M16.00 3.00 L19.35 11.99 L28.93 12.40 L21.42 18.36 L23.99 27.60 L16.00 22.30 L8.01 27.60 L10.58 18.36 L3.07 12.40 L12.65 11.99 Z" fill="#151923" stroke="#151923" stroke-width="2.2" stroke-linejoin="round"/><path d="M16.00 11.40 L17.29 14.82 L20.95 14.99 L18.09 17.28 L19.06 20.81 L16.00 18.80 L12.94 20.81 L13.91 17.28 L11.05 14.99 L14.71 14.82 Z" fill="#F4EBDD"/></g></symbol><symbol id="marker-turn" viewBox="0 0 32 32"><g data-layer="glyph-turn"><path d="M9 5 H23 A5 5 0 0 1 28 10 V16 A5 5 0 0 1 23 21 H16 L9.5 28 L11 21 H9 A5 5 0 0 1 4 16 V10 A5 5 0 0 1 9 5 Z" fill="#F1B84B" stroke="#151923" stroke-width="2.6" stroke-linejoin="round"/><circle cx="10.5" cy="13" r="1.7" fill="#151923"/><circle cx="16" cy="13" r="1.7" fill="#151923"/><circle cx="21.5" cy="13" r="1.7" fill="#151923"/></g></symbol><symbol id="marker-self" viewBox="0 0 32 32"><g data-layer="glyph-self"><path d="M16 29 C9 20 6.5 16.5 6.5 12 A9.5 9.5 0 1 1 25.5 12 C25.5 16.5 23 20 16 29 Z" fill="#F4EBDD" stroke="#151923" stroke-width="2.6" stroke-linejoin="round"/><circle cx="16" cy="12" r="3.6" fill="#151923"/></g></symbol><symbol id="fx-ink-trail" viewBox="0 0 96 80"><g data-layer="fx-ink-trail" fill="currentColor"><path d="M19.5 78 L22 30 L24.5 78 Z"/><path d="M32.5 76 L36 8 L39.5 76 Z"/><path d="M43.5 74 L48 0 L52.5 74 Z"/><path d="M57.5 76 L61 12 L64.5 76 Z"/><path d="M72.5 78 L75 34 L77.5 78 Z"/><circle cx="29" cy="16" r="2"/><circle cx="68" cy="22" r="1.7"/><circle cx="12" cy="52" r="1.5"/><circle cx="85" cy="56" r="1.5"/></g></symbol><symbol id="fx-landing-puff" viewBox="0 0 120 36"><g data-layer="fx-landing-puff" fill="currentColor"><path d="M50 31 C34 33 16 30 6 14 C18 24 34 26 50 25 Z"/><path d="M70 31 C86 33 104 30 114 14 C102 24 86 26 70 25 Z"/><circle cx="3" cy="8" r="2.2"/><circle cx="117" cy="8" r="2.2"/><circle cx="22" cy="6" r="1.6"/><circle cx="98" cy="6" r="1.6"/></g></symbol><symbol id="fx-speed-lines" viewBox="0 0 240 64"><g data-layer="fx-speed-lines" fill="currentColor"><path d="M40 4.5 L236 6 L40 7.5 Z"/><path d="M0 15.5 L200 18 L0 20.5 Z"/><path d="M60 28 L240 30 L60 32 Z"/><path d="M12 39 L180 42 L12 45 Z"/><path d="M80 52.5 L228 54 L80 55.5 Z"/></g></symbol><symbol id="icon-connection-stale" viewBox="0 0 32 32"><g data-layer="icon-connection-stale" fill="none" stroke="currentColor" stroke-width="2.6" stroke-linecap="round" stroke-linejoin="round"><path d="M7 25 V20 M14 25 V14 M21 25 V8" stroke-width="4"/><path d="M4.5 4.5 L27.5 27.5"/></g></symbol></svg>
